<mxfile host="app.diagrams.net" modified="2023-03-28T19:27:13.732Z" agent="Mozilla/5.0 (Macintosh; Intel Mac OS X 10_15_7) AppleWebKit/605.1.15 (KHTML, like Gecko) Version/15.6.1 Safari/605.1.15" version="21.1.1" etag="oZrEeVgiQwpiJXtV5Z_L" type="github">
  <diagram name="Page-1" id="syWiQImzlzbmVXuCw8KJ">
    <mxGraphModel>
      <root>
        <mxCell id="0" />
        <mxCell id="1" parent="0" />
      </root>
    </mxGraphModel>
  </diagram>
</mxfile>
